<svg xmlns="http://www.w3.org/2000/svg" xmlns:xlink="http://www.w3.org/1999/xlink" width="40" zoomAndPan="magnify" viewBox="0 0 30 30.000001" height="40" preserveAspectRatio="xMidYMid meet" version="1.0"><defs><clipPath id="4d085a5934"><path d="M 0.484375 0 L 29.515625 0 L 29.515625 29.03125 L 0.484375 29.03125 Z M 0.484375 0 " clip-rule="nonzero"/></clipPath></defs><g clip-path="url(#4d085a5934)"><path fill="#363436" d="M 15 0 C 6.996094 0 0.484375 6.511719 0.484375 14.515625 C 0.484375 22.519531 6.996094 29.03125 15 29.03125 C 23.003906 29.03125 29.515625 22.519531 29.515625 14.515625 C 29.515625 6.511719 23.003906 0 15 0 Z M 1.394531 17.34375 C 1.160156 16.722656 1.402344 16.042969 1.9375 15.695312 C 1.734375 16.117188 1.703125 16.648438 1.894531 17.160156 C 2.082031 17.667969 2.453125 18.050781 2.882812 18.238281 C 2.25 18.324219 1.625 17.964844 1.394531 17.34375 Z M 3.320312 14.460938 C 2.804688 14.589844 2.289062 14.414062 1.957031 14.046875 C 1.863281 13.949219 1.789062 13.832031 1.726562 13.707031 C 1.6875 13.625 1.65625 13.535156 1.632812 13.441406 C 1.449219 12.695312 1.90625 11.941406 2.652344 11.757812 C 2.6875 11.75 2.722656 11.742188 2.757812 11.738281 C 2.558594 12.117188 2.5 12.648438 2.632812 13.195312 C 2.769531 13.746094 3.066406 14.1875 3.421875 14.433594 C 3.386719 14.441406 3.351562 14.453125 3.320312 14.460938 Z M 2.621094 9.84375 C 2.613281 9.796875 2.609375 9.75 2.605469 9.703125 C 2.601562 9.65625 2.601562 9.609375 2.601562 9.5625 C 2.605469 9.417969 2.632812 9.28125 2.675781 9.15625 C 2.6875 9.113281 2.707031 9.070312 2.722656 9.027344 C 2.761719 8.945312 2.804688 8.871094 2.859375 8.796875 C 2.882812 8.761719 2.910156 8.726562 2.941406 8.691406 C 3.175781 8.421875 3.511719 8.242188 3.894531 8.214844 L 4.09375 10.992188 C 3.375 11.042969 2.742188 10.539062 2.621094 9.84375 Z M 4.042969 15.714844 C 3.980469 15.144531 4.253906 14.566406 4.789062 14.269531 L 6.222656 16.839844 C 5.734375 17.109375 5.15625 17.074219 4.714844 16.796875 C 4.675781 16.769531 4.636719 16.742188 4.597656 16.714844 C 4.449219 16.597656 4.316406 16.449219 4.21875 16.269531 C 4.121094 16.09375 4.0625 15.902344 4.042969 15.714844 Z M 4.539062 19.964844 C 4.324219 19.683594 4.226562 19.347656 4.242188 19.015625 C 4.246094 18.921875 4.257812 18.828125 4.28125 18.738281 C 4.355469 18.417969 4.539062 18.117188 4.824219 17.902344 C 4.851562 17.882812 4.882812 17.859375 4.914062 17.839844 C 4.878906 18.292969 5.046875 18.832031 5.40625 19.308594 C 5.765625 19.78125 6.242188 20.085938 6.6875 20.175781 C 6.660156 20.203125 6.628906 20.226562 6.601562 20.25 C 5.953125 20.738281 5.03125 20.613281 4.539062 19.964844 Z M 5.628906 23.824219 C 5.140625 23.324219 5.078125 22.566406 5.445312 22 C 5.429688 22.496094 5.628906 23.019531 6.03125 23.429688 C 6.433594 23.84375 6.957031 24.050781 7.449219 24.046875 C 6.878906 24.402344 6.121094 24.324219 5.628906 23.824219 Z M 8.109375 21.433594 C 7.996094 21.332031 7.902344 21.214844 7.828125 21.089844 C 7.511719 20.550781 7.570312 19.84375 8.015625 19.355469 L 10.1875 21.339844 C 9.742188 21.828125 9.042969 21.949219 8.476562 21.679688 C 8.34375 21.621094 8.222656 21.539062 8.109375 21.433594 Z M 9.527344 25.082031 C 9.484375 25.054688 9.441406 25.027344 9.402344 24.996094 C 9.277344 24.90625 9.175781 24.800781 9.089844 24.683594 C 8.863281 24.371094 8.769531 23.984375 8.820312 23.605469 C 8.828125 23.558594 8.835938 23.511719 8.847656 23.46875 C 8.894531 23.28125 8.976562 23.101562 9.097656 22.9375 C 9.121094 22.90625 9.144531 22.878906 9.167969 22.851562 C 9.261719 23.296875 9.570312 23.765625 10.050781 24.121094 C 10.53125 24.476562 11.070312 24.636719 11.523438 24.597656 C 11.503906 24.628906 11.480469 24.660156 11.460938 24.691406 C 11.003906 25.304688 10.167969 25.460938 9.527344 25.082031 Z M 11.980469 28.121094 C 11.328125 27.863281 10.964844 27.195312 11.066406 26.53125 C 11.257812 26.988281 11.652344 27.386719 12.1875 27.597656 C 12.722656 27.808594 13.28125 27.789062 13.734375 27.582031 C 13.355469 28.140625 12.628906 28.378906 11.980469 28.121094 Z M 13.472656 25.269531 C 13.425781 25.25 13.378906 25.230469 13.332031 25.210938 C 13.238281 25.167969 13.15625 25.117188 13.078125 25.058594 C 12.527344 24.644531 12.328125 23.894531 12.628906 23.25 L 15.289062 24.507812 C 14.964844 25.199219 14.175781 25.515625 13.472656 25.269531 Z M 17.585938 26.855469 C 17.375 27.582031 16.609375 28 15.882812 27.785156 C 15.15625 27.570312 14.738281 26.808594 14.953125 26.082031 C 14.960938 26.046875 14.972656 26.015625 14.988281 25.980469 C 15.210938 26.339844 15.632812 26.652344 16.167969 26.808594 C 16.703125 26.964844 17.230469 26.933594 17.613281 26.753906 C 17.605469 26.785156 17.597656 26.820312 17.585938 26.855469 Z M 20.019531 26.964844 C 19.972656 26.972656 19.925781 26.980469 19.878906 26.988281 C 19.78125 27 19.679688 27 19.578125 26.992188 C 19.378906 26.972656 19.1875 26.914062 19.019531 26.824219 C 18.851562 26.734375 18.703125 26.613281 18.582031 26.46875 C 18.339844 26.179688 18.210938 25.800781 18.246094 25.394531 L 21.175781 25.65625 C 21.117188 26.316406 20.632812 26.832031 20.019531 26.964844 Z M 25.859375 21.078125 C 25.730469 21.011719 25.585938 20.972656 25.433594 20.96875 C 24.890625 20.957031 24.429688 21.410156 24.300781 22.03125 C 24.574219 21.699219 24.976562 21.492188 25.421875 21.5 C 25.425781 21.5 25.429688 21.5 25.433594 21.5 C 25.855469 21.511719 26.085938 22.015625 25.832031 22.355469 C 25.414062 22.925781 24.945312 23.457031 24.429688 23.941406 C 24.289062 24.074219 24.140625 24.183594 23.988281 24.273438 C 23.058594 24.835938 21.871094 24.742188 20.988281 24.109375 C 20.675781 23.882812 20.359375 23.6875 20.035156 23.636719 C 19.105469 23.492188 17.929688 24.414062 17.054688 24.128906 C 16.164062 23.839844 15.757812 22.398438 14.933594 21.976562 C 14.105469 21.550781 12.699219 22.0625 11.949219 21.515625 C 11.199219 20.96875 11.253906 19.46875 10.601562 18.8125 C 9.945312 18.15625 8.449219 18.210938 7.902344 17.457031 C 7.355469 16.707031 7.871094 15.300781 7.449219 14.46875 C 7.03125 13.648438 5.589844 13.234375 5.300781 12.34375 C 5.019531 11.46875 5.941406 10.292969 5.796875 9.363281 C 5.730469 8.949219 5.429688 8.472656 5.132812 7.992188 C 4.59375 7.125 4.699219 5.996094 5.410156 5.261719 C 5.925781 4.722656 6.492188 4.226562 7.09375 3.785156 C 7.386719 3.566406 7.804688 3.761719 7.824219 4.128906 L 7.824219 4.136719 C 7.84375 4.582031 7.644531 4.988281 7.320312 5.269531 C 7.933594 5.128906 8.378906 4.65625 8.355469 4.113281 C 8.347656 3.960938 8.304688 3.816406 8.234375 3.6875 C 8.078125 3.40625 8.199219 3.046875 8.476562 2.890625 C 10.714844 1.628906 13.351562 0.988281 16.152344 1.226562 C 22.984375 1.804688 28.285156 7.570312 28.339844 14.425781 C 28.355469 16.699219 27.828125 18.867188 26.839844 20.75 C 26.652344 21.105469 26.214844 21.265625 25.859375 21.078125 Z M 6.199219 8.160156 C 6.328125 7.140625 6.289062 6.214844 6.078125 5.378906 C 6.84375 5.34375 7.496094 5.941406 7.53125 6.707031 C 7.5625 7.476562 6.96875 8.128906 6.199219 8.160156 Z M 8.453125 11.246094 C 8.769531 11.996094 8.421875 12.859375 7.671875 13.175781 C 7.589844 12.121094 7.226562 11.210938 6.527344 10.464844 C 7.273438 10.148438 8.136719 10.496094 8.453125 11.246094 Z M 10.75 15.472656 C 11.257812 16.109375 11.148438 17.035156 10.511719 17.542969 C 10.203125 16.476562 9.609375 15.695312 8.683594 15.238281 C 9.320312 14.730469 10.246094 14.835938 10.75 15.472656 Z M 14.335938 20.925781 C 13.839844 20.042969 13.074219 19.433594 12 19.136719 C 12.492188 18.492188 13.417969 18.367188 14.0625 18.863281 C 14.707031 19.355469 14.832031 20.277344 14.335938 20.925781 Z M 19.019531 22.949219 C 18.261719 22.300781 17.34375 21.964844 16.242188 21.96875 C 16.515625 21.203125 17.355469 20.800781 18.121094 21.070312 C 18.886719 21.339844 19.289062 22.183594 19.019531 22.949219 Z M 24.300781 23.515625 C 23.34375 23.324219 22.363281 23.242188 21.371094 23.257812 C 21.441406 22.449219 22.15625 21.851562 22.964844 21.921875 C 23.773438 21.992188 24.371094 22.707031 24.300781 23.515625 Z M 8.050781 7.632812 C 8.683594 7.605469 9.277344 8.019531 9.449219 8.660156 C 9.625 9.296875 9.320312 9.953125 8.757812 10.253906 C 9 9.847656 9.078125 9.324219 8.9375 8.796875 C 8.792969 8.273438 8.460938 7.859375 8.050781 7.632812 Z M 11.113281 12.890625 C 11.46875 13.449219 11.367188 14.167969 10.917969 14.613281 C 11.03125 14.160156 10.953125 13.632812 10.664062 13.171875 C 10.375 12.710938 9.933594 12.414062 9.472656 12.316406 C 10.074219 12.105469 10.761719 12.328125 11.113281 12.890625 Z M 13.425781 16.625 C 13.050781 16.234375 12.558594 16.03125 12.089844 16.027344 C 12.632812 15.699219 13.351562 15.777344 13.8125 16.257812 C 14.269531 16.738281 14.320312 17.457031 13.96875 17.988281 C 13.984375 17.519531 13.804688 17.019531 13.425781 16.625 Z M 16.679688 19.015625 C 16.226562 18.714844 15.699219 18.625 15.242188 18.726562 C 15.703125 18.285156 16.421875 18.207031 16.972656 18.570312 C 17.527344 18.9375 17.730469 19.628906 17.507812 20.222656 C 17.421875 19.761719 17.132812 19.316406 16.679688 19.015625 Z M 20.679688 20.867188 C 20.203125 20.738281 19.722656 20.828125 19.347656 21.074219 C 19.636719 20.511719 20.242188 20.195312 20.820312 20.351562 C 21.398438 20.511719 21.761719 21.089844 21.722656 21.722656 C 21.523438 21.320312 21.15625 20.996094 20.679688 20.867188 Z M 22.125 19.941406 C 22.347656 19.539062 22.871094 19.324219 23.394531 19.457031 C 23.921875 19.59375 24.277344 20.027344 24.28125 20.492188 C 24.082031 20.1875 23.734375 19.941406 23.300781 19.832031 C 22.867188 19.722656 22.445312 19.773438 22.125 19.941406 Z M 19.199219 18.507812 C 18.746094 18.273438 18.242188 18.25 17.8125 18.40625 C 18.214844 17.917969 18.894531 17.746094 19.445312 18.035156 C 20 18.324219 20.25 18.976562 20.082031 19.585938 C 19.960938 19.144531 19.65625 18.746094 19.199219 18.507812 Z M 19.199219 18.507812 " fill-opacity="1" fill-rule="nonzero"/></g></svg>