<svg xmlns="http://www.w3.org/2000/svg" xmlns:xlink="http://www.w3.org/1999/xlink" width="500" zoomAndPan="magnify" viewBox="0 0 375 374.999991" height="500" preserveAspectRatio="xMidYMid meet" version="1.0"><defs><clipPath id="c38bed50d0"><path d="M 120 151 L 266.78125 151 L 266.78125 264.050781 L 120 264.050781 Z M 120 151 " clip-rule="nonzero"/></clipPath><clipPath id="7a9fd61180"><path d="M 108.53125 131 L 259 131 L 259 224 L 108.53125 224 Z M 108.53125 131 " clip-rule="nonzero"/></clipPath><clipPath id="a4d2afbeab"><path d="M 139 81.800781 L 163 81.800781 L 163 146 L 139 146 Z M 139 81.800781 " clip-rule="nonzero"/></clipPath></defs><g clip-path="url(#c38bed50d0)"><path fill="#ffffff" d="M 149.746094 226.152344 C 148.480469 222.550781 149.957031 219.058594 153.8125 218.75 C 154.28125 218.734375 154.75 218.75 155.21875 218.800781 C 160.625 219.800781 163.164062 224.527344 163.234375 227.570312 C 163.285156 228.578125 163.066406 229.527344 162.585938 230.414062 C 162.304688 229.582031 161.917969 228.800781 161.425781 228.070312 C 160.9375 227.34375 160.355469 226.691406 159.691406 226.117188 C 159.027344 225.542969 158.296875 225.066406 157.503906 224.6875 C 156.710938 224.308594 155.878906 224.042969 155.015625 223.886719 C 154.546875 223.835938 154.078125 223.820312 153.605469 223.835938 C 151.753906 223.988281 150.460938 224.875 149.746094 226.152344 Z M 246.695312 197.003906 C 249.636719 196.273438 251.136719 198.648438 251.59375 201.421875 C 251.75 200.769531 251.859375 200.105469 251.921875 199.4375 C 252.253906 195.71875 250.921875 190.925781 246.898438 191.902344 C 242.855469 193.550781 240.867188 199.730469 241.601562 204.164062 C 242.332031 201.019531 244.089844 198.058594 246.695312 197.003906 Z M 174.457031 225.664062 C 178.6875 226.082031 181.058594 228.527344 181.972656 230.996094 C 182.335938 230.285156 182.546875 229.53125 182.605469 228.738281 C 182.875 225.695312 180.585938 221.152344 174.664062 220.566406 C 168.945312 220.542969 166.515625 224.976562 168.046875 228.996094 C 169.0625 227.058594 171.234375 225.652344 174.457031 225.664062 Z M 196.6875 225.886719 C 200.636719 225.945312 202.796875 227.8125 203.667969 229.949219 C 203.917969 229.433594 204.105469 228.894531 204.222656 228.335938 C 204.839844 225.257812 202.976562 220.890625 196.898438 220.800781 C 190.292969 221.3125 187.855469 226.660156 189.363281 230.445312 C 190.410156 228.128906 192.828125 226.175781 196.6875 225.886719 Z M 218.785156 224.21875 C 222.175781 223.964844 224 225.289062 224.769531 227.070312 C 224.917969 226.738281 225.046875 226.398438 225.148438 226.050781 C 226.074219 222.914062 224.769531 218.695312 218.992188 219.128906 C 212.261719 220.261719 209.390625 226.515625 210.96875 230.128906 C 212.097656 227.4375 214.738281 224.90625 218.773438 224.21875 Z M 230.960938 227.988281 C 230.976562 228.023438 230.996094 228.058594 231.015625 228.09375 C 232.148438 224.960938 234.855469 221.789062 238.25 220.753906 C 240.4375 220.351562 241.660156 221.132812 242.222656 222.371094 C 242.246094 222.320312 242.269531 222.269531 242.285156 222.214844 C 243.414062 218.988281 242.980469 214.824219 238.457031 215.667969 C 233.078125 217.292969 229.460938 224.292969 230.96875 227.976562 Z M 247.957031 170.484375 C 251.046875 169.410156 253.371094 173.898438 254.035156 177.425781 C 254.34375 179.003906 254.386719 180.589844 254.167969 182.183594 C 255.03125 180.429688 255.367188 177.753906 254.808594 174.773438 C 254.148438 171.246094 251.828125 166.757812 248.738281 167.832031 C 247.359375 168.617188 246.605469 170.316406 246.328125 172.328125 C 246.679688 171.546875 247.21875 170.929688 247.949219 170.472656 Z M 227.664062 199.113281 C 233.046875 198.488281 234.929688 203.402344 234.539062 207.09375 C 234.519531 207.273438 234.480469 207.445312 234.449219 207.621094 C 234.910156 206.609375 235.195312 205.546875 235.3125 204.441406 C 235.6875 200.753906 233.828125 195.835938 228.445312 196.464844 C 224.332031 197.417969 221.796875 201.035156 221.230469 204.675781 C 222.367188 202.066406 224.5625 199.832031 227.652344 199.105469 Z M 266.46875 185.078125 C 266.46875 228.777344 231.148438 264.191406 187.582031 264.191406 C 159.5 264.191406 134.859375 249.460938 120.898438 227.292969 C 122.652344 229.046875 132.128906 238.027344 132.722656 237.796875 C 133.203125 236.5625 130.894531 235.0625 130.707031 233.96875 C 130.457031 232.464844 132.367188 233.214844 132.855469 233.9375 C 133.578125 235.003906 134.175781 236.128906 135.027344 237.140625 C 136.660156 239.089844 138.734375 241.175781 141.183594 242.039062 C 143.527344 242.859375 143.371094 240.828125 142.226562 238.582031 C 141.566406 237.285156 140.792969 235.945312 141.1875 234.4375 C 141.605469 232.804688 143.289062 232.488281 144.746094 232.523438 C 146.765625 232.566406 148.992188 233.089844 150.945312 233.632812 C 153.527344 234.351562 156.363281 235.84375 159.054688 235.890625 C 162.175781 235.960938 165.019531 234.554688 168.175781 235.476562 C 172.34375 236.695312 174.085938 239.84375 178.953125 238.371094 C 182.527344 237.285156 184.140625 235.683594 188.035156 236.722656 C 192.6875 237.964844 194.507812 238.585938 199.171875 236.882812 C 202.804688 235.554688 206.433594 233.992188 210.203125 235.863281 C 214.1875 237.839844 215.890625 236.351562 219.394531 234.019531 C 223.007812 231.625 225.242188 232.6875 229.042969 233.585938 C 232.601562 234.433594 234.113281 231.355469 237.363281 230.246094 C 238.867188 229.730469 241.390625 230 242.480469 228.683594 C 243.914062 226.964844 244.023438 221.792969 244.808594 219.527344 C 245.597656 217.257812 246.1875 214.648438 247.738281 212.746094 C 249.34375 210.753906 251.878906 209.773438 253.066406 207.34375 C 255.070312 203.171875 252.917969 197.6875 253.199219 193.320312 C 253.539062 188.222656 258.851562 185.761719 258.714844 180.511719 C 258.574219 174.757812 253.792969 167.792969 256.761719 162.304688 C 257.9375 160.121094 259.023438 159.5 259.132812 156.765625 C 259.199219 155.054688 258.785156 153.167969 259 151.417969 C 261.46875 156.683594 263.332031 162.152344 264.589844 167.832031 C 265.851562 173.507812 266.472656 179.253906 266.464844 185.070312 Z M 216.097656 244.089844 C 217.066406 247.996094 224.679688 245.476562 227.90625 240.179688 C 229.457031 237.625 229.527344 234.304688 224.800781 234.90625 C 219.4375 236.089844 215.347656 241.070312 216.097656 244.089844 Z M 197.835938 245.285156 C 199.679688 249.804688 208.523438 248.160156 210.796875 242.867188 C 212.011719 240.046875 210.304688 237.097656 205.417969 237.246094 C 199.175781 237.945312 196.714844 242.542969 197.835938 245.285156 Z M 188.621094 255.660156 C 189.59375 258.976562 196.90625 258.519531 198.890625 255.015625 C 199.945312 253.160156 198.566406 251.160156 194.511719 251.148438 C 189.90625 251.449219 188.113281 253.960938 188.621094 255.660156 Z M 179.398438 245.300781 C 182.449219 249.972656 191.058594 249.070312 192.011719 243.984375 C 192.457031 241.601562 190.628906 238.117188 185.15625 237.828125 C 179.53125 237.980469 177.28125 242.0625 179.398438 245.300781 Z M 174.75 255.429688 C 177.792969 258.574219 184.203125 258.480469 184.277344 255.289062 C 184.316406 253.730469 182.390625 251.359375 178.050781 250.984375 C 177.875 250.984375 177.640625 250.984375 177.46875 250.984375 C 173.988281 251.039062 172.644531 253.246094 174.75 255.429688 Z M 163.96875 244.9375 C 168.425781 249.082031 174.921875 248.28125 174.671875 243.59375 C 174.542969 241.222656 172.035156 237.566406 166.886719 236.890625 C 166.683594 236.890625 166.40625 236.851562 166.199219 236.851562 C 161.300781 236.832031 160.066406 241.289062 163.96875 244.9375 Z M 151.277344 244.335938 C 155.421875 246.683594 158.316406 245.429688 157.207031 241.769531 C 156.480469 239.355469 153.441406 235.46875 148.945312 234.398438 C 148.246094 234.242188 147.550781 234.25 146.855469 234.421875 C 143.292969 235.46875 145.898438 241.308594 151.277344 244.335938 Z M 150.632812 251.972656 C 150.535156 251.828125 150.378906 251.597656 148.027344 249.660156 C 144.085938 246.417969 141.191406 244.308594 139.421875 243.394531 C 138.914062 243.171875 138.828125 243.15625 138.667969 243.195312 C 138.125 244.257812 148.574219 251.5625 150.617188 252.035156 Z M 158.4375 252.582031 C 156.886719 250.90625 153.363281 248.058594 150.023438 247.085938 C 149.613281 246.992188 148.847656 246.832031 148.472656 247.085938 C 146.585938 248.378906 155.839844 254.574219 158.980469 254.832031 C 160.539062 254.960938 158.960938 253.144531 158.4375 252.582031 Z M 167.167969 256.289062 C 170.8125 257.515625 172.066406 256.339844 171.179688 254.496094 C 170.425781 252.890625 167.5625 250.351562 163.644531 249.667969 C 163.140625 249.617188 162.199219 249.523438 161.496094 249.824219 C 159.050781 250.875 162.402344 254.675781 167.167969 256.289062 Z M 174.65625 260.71875 C 173.664062 260.394531 173.664062 260.394531 172.957031 260.117188 C 167.171875 257.855469 167.171875 257.855469 165.640625 257.507812 C 164.96875 257.394531 164.652344 257.367188 164.535156 257.535156 C 164.621094 258.003906 166.773438 258.988281 170.589844 259.890625 L 172.269531 260.265625 C 172.980469 260.410156 173.941406 260.582031 174.65625 260.71875 Z M 181.4375 261.003906 C 180.964844 260.578125 178.9375 259.277344 175.875 258.929688 C 175.476562 258.902344 174.410156 258.832031 174.035156 259.160156 C 172.859375 260.191406 179.199219 261.652344 181.359375 261.535156 C 181.535156 261.527344 181.992188 261.5 181.4375 261.003906 Z M 186.296875 259.464844 C 183.464844 259.492188 183.054688 260.410156 183.132812 260.730469 C 183.425781 261.859375 189.082031 262.238281 189.863281 261.1875 C 190.316406 260.574219 189.125 259.570312 186.300781 259.464844 Z M 197.855469 259.136719 C 194.84375 259.417969 192.789062 260.625 192.492188 261.214844 C 191.96875 262.261719 197.589844 261.234375 198.992188 260.648438 C 199.332031 260.523438 199.644531 260.339844 199.921875 260.105469 C 200.378906 259.667969 200.21875 259.019531 197.859375 259.136719 Z M 208.917969 257.820312 C 205.617188 258.464844 200.253906 260.894531 200.253906 260.914062 C 201.761719 260.644531 203.800781 260.238281 205.3125 259.914062 C 205.851562 259.78125 206.519531 259.613281 207.328125 259.355469 C 209.128906 258.773438 209.964844 258.273438 210.148438 258.019531 C 210.445312 257.574219 209.292969 257.75 208.917969 257.820312 Z M 210.882812 249.910156 C 206.058594 250.664062 202.910156 253.828125 202.945312 255.589844 C 203 258.363281 209.957031 256.5 213.042969 253.464844 L 213.394531 253.089844 C 214.738281 251.5625 214.84375 249.5625 210.882812 249.910156 Z M 224.628906 250.867188 C 225.480469 250.246094 226.207031 249.503906 226.816406 248.644531 C 227.164062 248.085938 227.714844 246.835938 225.308594 247.335938 C 220.789062 248.617188 215.714844 253.234375 215.664062 254.605469 C 215.613281 256.0625 221.339844 253.46875 224.628906 250.871094 Z M 236.621094 243.65625 C 236.445312 243.59375 236.347656 243.621094 235.867188 243.816406 C 232.71875 245.367188 225.1875 251.621094 224.75 252.273438 L 224.78125 252.339844 C 225.5 252.210938 229.480469 249.90625 232.667969 247.519531 C 234.734375 246.011719 236.820312 244.148438 236.621094 243.65625 Z M 241.578125 235.132812 C 242.757812 233.09375 243.390625 230.355469 240.324219 231.1875 C 235.574219 232.984375 230.902344 239.78125 231.464844 242.042969 C 232.070312 244.503906 237.78125 240.617188 240.8125 236.324219 C 241.0625 235.96875 241.371094 235.503906 241.582031 235.132812 Z M 250.929688 226.46875 C 247.667969 228.761719 241.667969 237.546875 241.917969 238.636719 C 242.125 239.535156 246.085938 235.625 248.980469 231.6875 C 250.359375 229.804688 251.367188 228.085938 251.675781 227.09375 C 252.089844 225.800781 251.28125 226.257812 250.933594 226.453125 Z M 252.726562 210.914062 C 248.207031 213.34375 244.960938 222.410156 246.324219 224.921875 C 247.597656 227.292969 252.089844 222.941406 254.207031 217.277344 C 255.636719 213.402344 255.488281 209.871094 252.730469 210.898438 Z M 256.628906 203.003906 C 258.511719 205.183594 261.363281 200.128906 261.796875 193.832031 C 262.054688 190.066406 261.304688 185.359375 258.824219 186.621094 C 255.457031 189.199219 254.410156 200.417969 256.632812 202.980469 Z M 261.996094 205.71875 C 262.027344 204.628906 261.546875 205.070312 261.316406 205.285156 C 258.761719 208.300781 255.070312 219.574219 255.71875 220.355469 C 256.230469 220.960938 258.699219 216.394531 260.441406 211.625 C 261.558594 208.546875 261.980469 206.550781 262 205.695312 Z M 262.214844 168.648438 C 261.25 164.617188 259.335938 160.980469 257.929688 162.128906 C 255.773438 165.023438 258.738281 177.074219 261.1875 178.214844 C 262.992188 179.023438 263.511719 174.011719 262.238281 168.625 Z M 265.449219 187.640625 C 265.558594 185.164062 265.582031 180.832031 265 180.308594 C 264.871094 180.308594 264.839844 180.359375 264.71875 180.589844 C 263.777344 183.132812 262.9375 197.132812 264.015625 197.542969 C 264.648438 196.855469 265.25 191.863281 265.453125 187.617188 Z M 265.449219 187.640625 " fill-opacity="1" fill-rule="nonzero"/></g><path fill="#004aad" d="M 146.101562 117.914062 L 146.050781 126.765625 C 145.121094 126.976562 144.191406 127.203125 143.261719 127.4375 C 138.480469 128.628906 133.792969 130.125 129.207031 131.925781 C 134.1875 126.46875 139.820312 121.800781 146.101562 117.914062 Z M 187.519531 106.175781 C 180.488281 106.164062 173.578125 107.082031 166.792969 108.929688 C 160.003906 110.777344 153.582031 113.484375 147.527344 117.058594 L 147.496094 126.445312 C 164.601562 122.804688 182.226562 123.324219 198.945312 126.261719 C 217.082031 129.328125 234.835938 134.886719 251.148438 143.214844 C 252.734375 144.023438 254.300781 144.871094 255.859375 145.722656 C 242.203125 122.101562 216.75 106.175781 187.519531 106.175781 Z M 187.519531 106.175781 " fill-opacity="1" fill-rule="nonzero"/><g clip-path="url(#7a9fd61180)"><path fill="#79c100" d="M 258.6875 151.0625 C 253.152344 149.554688 247.386719 148.734375 239.476562 148.324219 C 217.71875 147.195312 173.894531 144.179688 140.082031 183.777344 C 130.847656 194.597656 123.394531 208.847656 118.414062 223.378906 C 115.167969 217.535156 112.707031 211.375 111.035156 204.902344 C 109.359375 198.429688 108.523438 191.851562 108.53125 185.164062 L 108.53125 184.808594 C 108.625 164.367188 121.675781 146.070312 140.796875 138.84375 C 142.507812 138.199219 144.238281 137.597656 145.988281 137.042969 L 145.960938 141.695312 C 142.371094 142.046875 139.914062 142.757812 139.914062 143.578125 C 139.914062 144.746094 144.890625 145.695312 151.03125 145.695312 C 157.171875 145.695312 162.148438 144.746094 162.148438 143.578125 C 162.148438 142.410156 157.171875 141.460938 151.03125 141.460938 C 149.773438 141.460938 148.574219 141.496094 147.445312 141.574219 L 147.445312 136.578125 C 163.535156 131.648438 180.863281 130.839844 198.03125 132.746094 C 210.441406 134.0625 222.589844 136.621094 234.476562 140.425781 C 239.644531 142.09375 244.753906 143.976562 249.753906 146.152344 C 252.625 147.398438 255.453125 148.753906 258.253906 150.164062 C 258.402344 150.453125 258.542969 150.769531 258.6875 151.0625 Z M 258.6875 151.0625 " fill-opacity="1" fill-rule="nonzero"/></g><path fill="#ff3131" d="M 172.628906 93.367188 C 168.59375 97.453125 162.78125 97.195312 158.804688 95.316406 C 154.660156 93.742188 151.296875 94.132812 147.878906 96.1875 C 148.492188 93.9375 148.824219 91.648438 148.882812 89.316406 C 148.96875 86.652344 148.550781 84.355469 147.648438 82.929688 C 153.234375 82.328125 158.433594 85.429688 161.496094 89.105469 C 164.558594 92.78125 167.820312 95.148438 172.628906 93.367188 Z M 172.628906 93.367188 " fill-opacity="1" fill-rule="nonzero"/><g clip-path="url(#a4d2afbeab)"><path fill="#ffde59" d="M 162.148438 143.589844 C 162.148438 144.757812 157.171875 145.707031 151.03125 145.707031 C 144.890625 145.707031 139.914062 144.757812 139.914062 143.589844 C 139.914062 142.765625 142.371094 142.054688 145.960938 141.703125 L 145.988281 137.054688 L 146.050781 126.769531 L 146.101562 117.917969 L 146.3125 81.886719 L 147.644531 81.886719 L 147.644531 82.925781 L 147.53125 117.054688 L 147.5 126.441406 L 147.464844 136.585938 L 147.464844 141.582031 C 148.597656 141.503906 149.792969 141.46875 151.046875 141.46875 C 157.171875 141.472656 162.148438 142.417969 162.148438 143.589844 Z M 162.148438 143.589844 " fill-opacity="1" fill-rule="nonzero"/></g></svg>