<svg xmlns="http://www.w3.org/2000/svg" xmlns:xlink="http://www.w3.org/1999/xlink" width="500" zoomAndPan="magnify" viewBox="0 0 375 374.999991" height="500" preserveAspectRatio="xMidYMid meet" version="1.0"><defs><clipPath id="066f5f10c2"><path d="M 120 151 L 266.78125 151 L 266.78125 264 L 120 264 Z M 120 151 " clip-rule="nonzero"/></clipPath><clipPath id="a4bf130b41"><path d="M 108.53125 131 L 259 131 L 259 224 L 108.53125 224 Z M 108.53125 131 " clip-rule="nonzero"/></clipPath><clipPath id="88b26cae49"><path d="M 139 81.800781 L 163 81.800781 L 163 146 L 139 146 Z M 139 81.800781 " clip-rule="nonzero"/></clipPath></defs><rect x="-37.5" width="450" fill="#ffffff" y="-37.499999" height="449.999989" fill-opacity="1"/><rect x="-37.5" width="450" fill="#ffffff" y="-37.499999" height="449.999989" fill-opacity="1"/><g clip-path="url(#066f5f10c2)"><path fill="#7ed957" d="M 149.828125 225.96875 C 148.558594 222.371094 150.039062 218.882812 153.90625 218.574219 C 154.375 218.558594 154.84375 218.574219 155.3125 218.625 C 160.730469 219.625 163.273438 224.347656 163.34375 227.382812 C 163.394531 228.390625 163.175781 229.335938 162.695312 230.222656 C 162.414062 229.390625 162.023438 228.613281 161.53125 227.882812 C 161.039062 227.15625 160.460938 226.503906 159.792969 225.933594 C 159.125 225.359375 158.394531 224.882812 157.601562 224.503906 C 156.804688 224.125 155.976562 223.859375 155.109375 223.703125 C 154.640625 223.65625 154.167969 223.636719 153.695312 223.652344 C 151.839844 223.804688 150.542969 224.691406 149.828125 225.96875 Z M 246.972656 196.855469 C 249.917969 196.128906 251.421875 198.496094 251.882812 201.265625 C 252.035156 200.613281 252.144531 199.957031 252.210938 199.289062 C 252.542969 195.574219 251.207031 190.785156 247.171875 191.761719 C 243.125 193.40625 241.132812 199.578125 241.871094 204.007812 C 242.597656 200.867188 244.363281 197.910156 246.972656 196.855469 Z M 174.589844 225.476562 C 178.828125 225.894531 181.203125 228.339844 182.121094 230.804688 C 182.484375 230.09375 182.695312 229.34375 182.753906 228.546875 C 183.023438 225.511719 180.730469 220.976562 174.796875 220.386719 C 169.066406 220.367188 166.632812 224.792969 168.164062 228.808594 C 169.183594 226.871094 171.359375 225.46875 174.589844 225.476562 Z M 196.863281 225.699219 C 200.820312 225.761719 202.984375 227.625 203.855469 229.761719 C 204.109375 229.246094 204.296875 228.707031 204.414062 228.144531 C 205.03125 225.070312 203.167969 220.710938 197.074219 220.621094 C 190.457031 221.132812 188.015625 226.476562 189.523438 230.253906 C 190.574219 227.9375 192.996094 225.988281 196.863281 225.699219 Z M 219.003906 224.039062 C 222.402344 223.78125 224.230469 225.105469 225.003906 226.882812 C 225.152344 226.550781 225.277344 226.214844 225.382812 225.867188 C 226.308594 222.730469 225.003906 218.519531 219.214844 218.953125 C 212.46875 220.082031 209.589844 226.328125 211.171875 229.9375 C 212.304688 227.25 214.953125 224.722656 218.996094 224.039062 Z M 231.207031 227.800781 C 231.222656 227.835938 231.242188 227.871094 231.261719 227.90625 C 232.394531 224.777344 235.109375 221.609375 238.511719 220.574219 C 240.699219 220.171875 241.925781 220.953125 242.488281 222.191406 C 242.515625 222.140625 242.535156 222.089844 242.554688 222.035156 C 243.6875 218.8125 243.246094 214.652344 238.71875 215.496094 C 233.328125 217.117188 229.703125 224.109375 231.214844 227.789062 Z M 248.238281 170.371094 C 251.332031 169.296875 253.664062 173.777344 254.328125 177.304688 C 254.636719 178.878906 254.679688 180.464844 254.460938 182.054688 C 255.324219 180.300781 255.660156 177.632812 255.101562 174.65625 C 254.441406 171.128906 252.113281 166.648438 249.019531 167.71875 C 247.636719 168.507812 246.882812 170.203125 246.605469 172.214844 C 246.957031 171.433594 247.5 170.8125 248.226562 170.359375 Z M 227.902344 198.964844 C 233.296875 198.339844 235.179688 203.246094 234.792969 206.933594 C 234.773438 207.113281 234.730469 207.28125 234.703125 207.460938 C 235.164062 206.449219 235.449219 205.390625 235.566406 204.285156 C 235.945312 200.601562 234.078125 195.691406 228.683594 196.320312 C 224.5625 197.269531 222.027344 200.882812 221.457031 204.519531 C 222.59375 201.910156 224.796875 199.679688 227.890625 198.957031 Z M 266.785156 184.945312 C 266.785156 228.589844 231.394531 263.957031 187.738281 263.957031 C 159.601562 263.957031 134.914062 249.246094 120.921875 227.109375 C 122.683594 228.855469 132.175781 237.828125 132.773438 237.597656 C 133.253906 236.363281 130.9375 234.867188 130.753906 233.773438 C 130.5 232.269531 132.414062 233.023438 132.90625 233.742188 C 133.628906 234.804688 134.226562 235.929688 135.078125 236.941406 C 136.71875 238.886719 138.792969 240.972656 141.246094 241.835938 C 143.597656 242.652344 143.441406 240.621094 142.292969 238.378906 C 141.632812 237.085938 140.859375 235.746094 141.25 234.242188 C 141.671875 232.613281 143.355469 232.296875 144.816406 232.328125 C 146.839844 232.371094 149.074219 232.894531 151.03125 233.4375 C 153.617188 234.15625 156.460938 235.644531 159.15625 235.695312 C 162.285156 235.761719 165.128906 234.359375 168.292969 235.28125 C 172.472656 236.496094 174.21875 239.640625 179.09375 238.167969 C 182.675781 237.085938 184.292969 235.488281 188.195312 236.523438 C 192.855469 237.761719 194.679688 238.382812 199.355469 236.683594 C 202.992188 235.359375 206.628906 233.796875 210.40625 235.664062 C 214.398438 237.640625 216.105469 236.152344 219.617188 233.824219 C 223.238281 231.429688 225.476562 232.496094 229.285156 233.390625 C 232.851562 234.238281 234.367188 231.164062 237.621094 230.054688 C 239.128906 229.542969 241.65625 229.808594 242.75 228.496094 C 244.183594 226.777344 244.292969 221.613281 245.082031 219.347656 C 245.871094 217.085938 246.464844 214.476562 248.015625 212.578125 C 249.628906 210.585938 252.167969 209.609375 253.355469 207.179688 C 255.363281 203.015625 253.207031 197.539062 253.488281 193.175781 C 253.828125 188.085938 259.152344 185.625 259.015625 180.386719 C 258.875 174.640625 254.085938 167.683594 257.058594 162.199219 C 258.238281 160.019531 259.324219 159.402344 259.433594 156.671875 C 259.503906 154.960938 259.085938 153.078125 259.300781 151.328125 C 261.773438 156.585938 263.640625 162.050781 264.902344 167.722656 C 266.164062 173.390625 266.789062 179.128906 266.78125 184.9375 Z M 216.3125 243.878906 C 217.285156 247.78125 224.914062 245.265625 228.144531 239.976562 C 229.699219 237.425781 229.769531 234.109375 225.035156 234.707031 C 219.660156 235.894531 215.5625 240.867188 216.3125 243.878906 Z M 198.011719 245.074219 C 199.863281 249.589844 208.722656 247.949219 211.003906 242.660156 C 212.21875 239.84375 210.507812 236.898438 205.613281 237.046875 C 199.359375 237.746094 196.890625 242.339844 198.011719 245.074219 Z M 188.78125 255.433594 C 189.757812 258.75 197.085938 258.292969 199.070312 254.792969 C 200.128906 252.941406 198.746094 250.941406 194.683594 250.933594 C 190.066406 251.234375 188.273438 253.738281 188.78125 255.433594 Z M 179.539062 245.09375 C 182.597656 249.757812 191.222656 248.855469 192.175781 243.777344 C 192.625 241.398438 190.792969 237.917969 185.3125 237.628906 C 179.671875 237.78125 177.417969 241.855469 179.539062 245.09375 Z M 174.882812 255.207031 C 177.929688 258.347656 184.355469 258.253906 184.429688 255.066406 C 184.46875 253.507812 182.539062 251.140625 178.191406 250.765625 C 178.015625 250.765625 177.78125 250.765625 177.605469 250.765625 C 174.117188 250.824219 172.769531 253.027344 174.882812 255.207031 Z M 164.082031 244.726562 C 168.546875 248.867188 175.054688 248.070312 174.804688 243.386719 C 174.671875 241.015625 172.164062 237.367188 167.003906 236.691406 C 166.800781 236.691406 166.523438 236.652344 166.316406 236.652344 C 161.40625 236.632812 160.171875 241.085938 164.082031 244.726562 Z M 151.363281 244.128906 C 155.515625 246.472656 158.414062 245.21875 157.304688 241.5625 C 156.578125 239.152344 153.53125 235.273438 149.027344 234.203125 C 148.328125 234.046875 147.628906 234.054688 146.933594 234.226562 C 143.359375 235.273438 145.972656 241.105469 151.363281 244.128906 Z M 150.71875 251.753906 C 150.621094 251.609375 150.460938 251.378906 148.105469 249.445312 C 144.15625 246.207031 141.257812 244.097656 139.484375 243.1875 C 138.976562 242.964844 138.886719 242.949219 138.730469 242.988281 C 138.1875 244.050781 148.652344 251.34375 150.703125 251.816406 Z M 158.535156 252.363281 C 156.984375 250.691406 153.453125 247.847656 150.105469 246.871094 C 149.695312 246.78125 148.929688 246.621094 148.550781 246.871094 C 146.664062 248.167969 155.933594 254.351562 159.078125 254.613281 C 160.640625 254.738281 159.0625 252.925781 158.535156 252.363281 Z M 167.285156 256.0625 C 170.9375 257.289062 172.195312 256.117188 171.304688 254.273438 C 170.550781 252.667969 167.683594 250.132812 163.757812 249.453125 C 163.25 249.398438 162.308594 249.304688 161.601562 249.605469 C 159.152344 250.65625 162.511719 254.453125 167.285156 256.0625 Z M 174.785156 260.488281 C 173.792969 260.164062 173.792969 260.164062 173.085938 259.886719 C 167.289062 257.628906 167.289062 257.628906 165.753906 257.28125 C 165.082031 257.167969 164.765625 257.144531 164.648438 257.308594 C 164.734375 257.78125 166.890625 258.761719 170.714844 259.660156 L 172.398438 260.035156 C 173.109375 260.179688 174.074219 260.351562 174.785156 260.488281 Z M 181.582031 260.773438 C 181.109375 260.347656 179.078125 259.050781 176.011719 258.703125 C 175.609375 258.675781 174.542969 258.601562 174.167969 258.929688 C 172.988281 259.960938 179.339844 261.421875 181.507812 261.304688 C 181.679688 261.296875 182.140625 261.269531 181.585938 260.773438 Z M 186.453125 259.234375 C 183.617188 259.265625 183.203125 260.179688 183.285156 260.5 C 183.574219 261.628906 189.246094 262.003906 190.027344 260.957031 C 190.480469 260.34375 189.285156 259.339844 186.453125 259.234375 Z M 198.035156 258.90625 C 195.015625 259.191406 192.960938 260.394531 192.660156 260.984375 C 192.136719 262.03125 197.769531 261.003906 199.171875 260.421875 C 199.515625 260.292969 199.828125 260.113281 200.105469 259.875 C 200.5625 259.4375 200.402344 258.792969 198.039062 258.90625 Z M 209.121094 257.59375 C 205.8125 258.238281 200.4375 260.664062 200.4375 260.683594 C 201.945312 260.414062 203.992188 260.011719 205.507812 259.6875 C 206.046875 259.550781 206.714844 259.386719 207.527344 259.125 C 209.332031 258.546875 210.167969 258.046875 210.355469 257.792969 C 210.648438 257.347656 209.496094 257.523438 209.121094 257.59375 Z M 211.085938 249.695312 C 206.253906 250.445312 203.097656 253.605469 203.136719 255.367188 C 203.1875 258.136719 210.160156 256.273438 213.253906 253.246094 L 213.605469 252.871094 C 214.953125 251.34375 215.058594 249.347656 211.085938 249.695312 Z M 224.859375 250.648438 C 225.714844 250.027344 226.445312 249.289062 227.054688 248.429688 C 227.402344 247.871094 227.953125 246.625 225.542969 247.125 C 221.015625 248.402344 215.929688 253.015625 215.878906 254.382812 C 215.828125 255.839844 221.566406 253.25 224.859375 250.652344 Z M 236.875 243.449219 C 236.703125 243.382812 236.605469 243.414062 236.121094 243.609375 C 232.96875 245.15625 225.421875 251.402344 224.980469 252.054688 L 225.015625 252.121094 C 225.734375 251.992188 229.722656 249.691406 232.917969 247.308594 C 234.988281 245.800781 237.074219 243.941406 236.875 243.449219 Z M 241.84375 234.9375 C 243.023438 232.898438 243.660156 230.164062 240.585938 230.996094 C 235.832031 232.789062 231.148438 239.582031 231.710938 241.835938 C 232.320312 244.292969 238.039062 240.410156 241.078125 236.125 C 241.328125 235.773438 241.636719 235.304688 241.847656 234.9375 Z M 251.214844 226.285156 C 247.949219 228.570312 241.933594 237.34375 242.183594 238.4375 C 242.390625 239.332031 246.363281 235.425781 249.261719 231.496094 C 250.644531 229.613281 251.65625 227.898438 251.964844 226.910156 C 252.378906 225.613281 251.566406 226.074219 251.21875 226.269531 Z M 253.015625 210.75 C 248.488281 213.175781 245.234375 222.230469 246.601562 224.738281 C 247.875 227.109375 252.375 222.761719 254.496094 217.101562 C 255.929688 213.230469 255.785156 209.707031 253.019531 210.734375 Z M 256.925781 202.847656 C 258.8125 205.027344 261.667969 199.976562 262.101562 193.6875 C 262.363281 189.925781 261.613281 185.226562 259.125 186.488281 C 255.75 189.0625 254.699219 200.265625 256.929688 202.824219 Z M 262.304688 205.558594 C 262.332031 204.472656 261.855469 204.914062 261.625 205.128906 C 259.066406 208.136719 255.363281 219.398438 256.015625 220.175781 C 256.527344 220.78125 259 216.222656 260.746094 211.460938 C 261.867188 208.386719 262.289062 206.390625 262.308594 205.539062 Z M 262.523438 168.535156 C 261.554688 164.511719 259.636719 160.878906 258.230469 162.023438 C 256.066406 164.917969 259.039062 176.949219 261.492188 178.089844 C 263.300781 178.898438 263.820312 173.894531 262.546875 168.515625 Z M 265.765625 187.503906 C 265.875 185.03125 265.898438 180.703125 265.3125 180.183594 C 265.183594 180.183594 265.152344 180.234375 265.03125 180.464844 C 264.089844 183.003906 263.246094 196.984375 264.328125 197.394531 C 264.960938 196.707031 265.566406 191.722656 265.769531 187.480469 Z M 265.765625 187.503906 " fill-opacity="1" fill-rule="nonzero"/></g><path fill="#004aad" d="M 146.175781 117.867188 L 146.125 126.710938 C 145.191406 126.921875 144.261719 127.144531 143.332031 127.378906 C 138.539062 128.570312 133.84375 130.0625 129.246094 131.859375 C 134.238281 126.410156 139.882812 121.746094 146.175781 117.867188 Z M 187.679688 106.144531 C 180.632812 106.132812 173.707031 107.050781 166.910156 108.894531 C 160.109375 110.738281 153.675781 113.445312 147.605469 117.011719 L 147.574219 126.390625 C 164.714844 122.75 182.375 123.269531 199.128906 126.207031 C 217.300781 129.269531 235.089844 134.816406 251.4375 143.136719 C 253.023438 143.941406 254.589844 144.789062 256.152344 145.640625 C 242.46875 122.046875 216.96875 106.144531 187.679688 106.144531 Z M 187.679688 106.144531 " fill-opacity="1" fill-rule="nonzero"/><g clip-path="url(#a4bf130b41)"><path fill="#79c100" d="M 258.988281 150.972656 C 253.445312 149.46875 247.664062 148.648438 239.738281 148.238281 C 217.9375 147.109375 174.023438 144.101562 140.144531 183.648438 C 130.894531 194.453125 123.425781 208.683594 118.4375 223.199219 C 115.183594 217.359375 112.71875 211.210938 111.039062 204.746094 C 109.363281 198.28125 108.523438 191.710938 108.53125 185.03125 L 108.53125 184.675781 C 108.625 164.261719 121.699219 145.988281 140.863281 138.773438 C 142.574219 138.125 144.308594 137.527344 146.0625 136.972656 L 146.039062 141.617188 C 142.441406 141.96875 139.976562 142.679688 139.976562 143.496094 C 139.976562 144.664062 144.960938 145.613281 151.113281 145.613281 C 157.269531 145.613281 162.253906 144.664062 162.253906 143.496094 C 162.253906 142.332031 157.269531 141.382812 151.113281 141.382812 C 149.859375 141.382812 148.652344 141.421875 147.523438 141.496094 L 147.523438 136.507812 C 163.644531 131.585938 181.007812 130.777344 198.210938 132.679688 C 210.644531 133.996094 222.816406 136.550781 234.726562 140.351562 C 239.90625 142.015625 245.027344 143.898438 250.035156 146.070312 C 252.914062 147.3125 255.746094 148.667969 258.554688 150.074219 C 258.703125 150.363281 258.84375 150.679688 258.988281 150.972656 Z M 258.988281 150.972656 " fill-opacity="1" fill-rule="nonzero"/></g><path fill="#ff3131" d="M 172.757812 93.351562 C 168.714844 97.433594 162.886719 97.175781 158.90625 95.300781 C 154.753906 93.726562 151.382812 94.113281 147.957031 96.167969 C 148.570312 93.921875 148.90625 91.632812 148.964844 89.308594 C 149.050781 86.648438 148.628906 84.351562 147.726562 82.929688 C 153.324219 82.328125 158.53125 85.425781 161.601562 89.097656 C 164.671875 92.769531 167.9375 95.132812 172.757812 93.351562 Z M 172.757812 93.351562 " fill-opacity="1" fill-rule="nonzero"/><g clip-path="url(#88b26cae49)"><path fill="#ffde59" d="M 162.253906 143.507812 C 162.253906 144.675781 157.269531 145.625 151.113281 145.625 C 144.960938 145.625 139.976562 144.675781 139.976562 143.507812 C 139.976562 142.6875 142.441406 141.976562 146.039062 141.628906 L 146.0625 136.984375 L 146.125 126.714844 L 146.175781 117.871094 L 146.386719 81.886719 L 147.722656 81.886719 L 147.722656 82.925781 L 147.609375 117.011719 L 147.578125 126.386719 L 147.542969 136.515625 L 147.542969 141.503906 C 148.675781 141.429688 149.875 141.390625 151.132812 141.390625 C 157.269531 141.394531 162.253906 142.339844 162.253906 143.507812 Z M 162.253906 143.507812 " fill-opacity="1" fill-rule="nonzero"/></g></svg>