<svg xmlns="http://www.w3.org/2000/svg" xmlns:xlink="http://www.w3.org/1999/xlink" width="500" zoomAndPan="magnify" viewBox="0 0 375 374.999991" height="500" preserveAspectRatio="xMidYMid meet" version="1.0"><defs><g/><clipPath id="6944de13b0"><path d="M 120 125 L 266.78125 125 L 266.78125 238 L 120 238 Z M 120 125 " clip-rule="nonzero"/></clipPath><clipPath id="ef37253989"><path d="M 108.53125 105 L 259 105 L 259 198 L 108.53125 198 Z M 108.53125 105 " clip-rule="nonzero"/></clipPath><clipPath id="ecb7ae6237"><path d="M 139 55.769531 L 163 55.769531 L 163 120 L 139 120 Z M 139 55.769531 " clip-rule="nonzero"/></clipPath></defs><rect x="-37.5" width="450" fill="#ffffff" y="-37.499999" height="449.999989" fill-opacity="1"/><rect x="-37.5" width="450" fill="#181818" y="-37.499999" height="449.999989" fill-opacity="1"/><g clip-path="url(#6944de13b0)"><path fill="#ffffff" d="M 149.828125 199.9375 C 148.558594 196.339844 150.039062 192.851562 153.90625 192.542969 C 154.375 192.527344 154.84375 192.542969 155.3125 192.59375 C 160.730469 193.59375 163.273438 198.316406 163.34375 201.351562 C 163.394531 202.359375 163.175781 203.304688 162.695312 204.191406 C 162.414062 203.359375 162.023438 202.582031 161.53125 201.851562 C 161.039062 201.125 160.460938 200.476562 159.792969 199.902344 C 159.125 199.328125 158.394531 198.851562 157.601562 198.472656 C 156.804688 198.097656 155.976562 197.828125 155.109375 197.671875 C 154.640625 197.625 154.167969 197.605469 153.695312 197.625 C 151.839844 197.773438 150.542969 198.660156 149.828125 199.9375 Z M 246.972656 170.828125 C 249.917969 170.097656 251.421875 172.46875 251.882812 175.238281 C 252.035156 174.585938 252.144531 173.925781 252.210938 173.257812 C 252.542969 169.542969 251.207031 164.753906 247.171875 165.730469 C 243.125 167.375 241.132812 173.546875 241.871094 177.976562 C 242.597656 174.835938 244.363281 171.878906 246.972656 170.828125 Z M 174.589844 199.449219 C 178.828125 199.867188 181.203125 202.308594 182.121094 204.777344 C 182.484375 204.066406 182.695312 203.3125 182.753906 202.519531 C 183.023438 199.480469 180.730469 194.945312 174.796875 194.355469 C 169.066406 194.335938 166.632812 198.761719 168.164062 202.777344 C 169.183594 200.839844 171.359375 199.4375 174.589844 199.449219 Z M 196.863281 199.667969 C 200.820312 199.730469 202.984375 201.59375 203.855469 203.730469 C 204.109375 203.214844 204.296875 202.675781 204.414062 202.117188 C 205.03125 199.042969 203.167969 194.679688 197.074219 194.589844 C 190.457031 195.101562 188.015625 200.445312 189.523438 204.222656 C 190.574219 201.910156 192.996094 199.960938 196.863281 199.667969 Z M 219.003906 198.007812 C 222.402344 197.75 224.230469 199.074219 225.003906 200.851562 C 225.152344 200.519531 225.277344 200.183594 225.382812 199.835938 C 226.308594 196.703125 225.003906 192.488281 219.214844 192.921875 C 212.46875 194.050781 209.589844 200.296875 211.171875 203.90625 C 212.304688 201.21875 214.953125 198.691406 218.996094 198.007812 Z M 231.207031 201.769531 C 231.222656 201.804688 231.242188 201.839844 231.261719 201.875 C 232.394531 198.75 235.109375 195.578125 238.511719 194.546875 C 240.699219 194.144531 241.925781 194.921875 242.488281 196.160156 C 242.515625 196.109375 242.535156 196.058594 242.554688 196.003906 C 243.6875 192.78125 243.246094 188.625 238.71875 189.464844 C 233.328125 191.085938 229.703125 198.078125 231.214844 201.757812 Z M 248.238281 144.339844 C 251.332031 143.265625 253.664062 147.746094 254.328125 151.273438 C 254.636719 152.851562 254.679688 154.433594 254.460938 156.023438 C 255.324219 154.273438 255.660156 151.601562 255.101562 148.625 C 254.441406 145.097656 252.113281 140.617188 249.019531 141.691406 C 247.636719 142.476562 246.882812 144.171875 246.605469 146.183594 C 246.957031 145.402344 247.5 144.78125 248.226562 144.328125 Z M 227.902344 172.933594 C 233.296875 172.308594 235.179688 177.214844 234.792969 180.902344 C 234.773438 181.082031 234.730469 181.253906 234.703125 181.429688 C 235.164062 180.417969 235.449219 179.359375 235.566406 178.253906 C 235.945312 174.570312 234.078125 169.660156 228.683594 170.289062 C 224.5625 171.242188 222.027344 174.851562 221.457031 178.488281 C 222.59375 175.878906 224.796875 173.648438 227.890625 172.925781 Z M 266.785156 158.914062 C 266.785156 202.558594 231.394531 237.925781 187.738281 237.925781 C 159.601562 237.925781 134.914062 223.214844 120.921875 201.078125 C 122.683594 202.828125 132.175781 211.796875 132.773438 211.566406 C 133.253906 210.332031 130.9375 208.835938 130.753906 207.746094 C 130.5 206.238281 132.414062 206.992188 132.90625 207.710938 C 133.628906 208.773438 134.226562 209.898438 135.078125 210.914062 C 136.71875 212.855469 138.792969 214.941406 141.246094 215.804688 C 143.597656 216.625 143.441406 214.59375 142.292969 212.347656 C 141.632812 211.054688 140.859375 209.714844 141.25 208.210938 C 141.671875 206.582031 143.355469 206.265625 144.816406 206.300781 C 146.839844 206.339844 149.074219 206.863281 151.03125 207.40625 C 153.617188 208.125 156.460938 209.613281 159.15625 209.664062 C 162.285156 209.730469 165.128906 208.328125 168.292969 209.25 C 172.472656 210.464844 174.21875 213.609375 179.09375 212.140625 C 182.675781 211.054688 184.292969 209.457031 188.195312 210.496094 C 192.855469 211.730469 194.679688 212.351562 199.355469 210.652344 C 202.992188 209.328125 206.628906 207.765625 210.40625 209.632812 C 214.398438 211.609375 216.105469 210.121094 219.617188 207.792969 C 223.238281 205.398438 225.476562 206.464844 229.285156 207.359375 C 232.851562 208.207031 234.367188 205.132812 237.621094 204.023438 C 239.128906 203.511719 241.65625 203.777344 242.75 202.464844 C 244.183594 200.746094 244.292969 195.582031 245.082031 193.320312 C 245.871094 191.054688 246.464844 188.445312 248.015625 186.546875 C 249.628906 184.554688 252.167969 183.578125 253.355469 181.152344 C 255.363281 176.984375 253.207031 171.507812 253.488281 167.148438 C 253.828125 162.054688 259.152344 159.59375 259.015625 154.355469 C 258.875 148.609375 254.085938 141.652344 257.058594 136.171875 C 258.238281 133.988281 259.324219 133.371094 259.433594 130.640625 C 259.503906 128.929688 259.085938 127.046875 259.300781 125.296875 C 261.773438 130.554688 263.640625 136.019531 264.902344 141.691406 C 266.164062 147.359375 266.789062 153.097656 266.78125 158.90625 Z M 216.3125 217.851562 C 217.285156 221.75 224.914062 219.234375 228.144531 213.945312 C 229.699219 211.394531 229.769531 208.078125 225.035156 208.675781 C 219.660156 209.863281 215.5625 214.835938 216.3125 217.851562 Z M 198.011719 219.042969 C 199.863281 223.558594 208.722656 221.917969 211.003906 216.632812 C 212.21875 213.8125 210.507812 210.867188 205.613281 211.015625 C 199.359375 211.714844 196.890625 216.308594 198.011719 219.042969 Z M 188.78125 229.40625 C 189.757812 232.71875 197.085938 232.261719 199.070312 228.761719 C 200.128906 226.910156 198.746094 224.914062 194.683594 224.902344 C 190.066406 225.203125 188.273438 227.707031 188.78125 229.40625 Z M 179.539062 219.0625 C 182.597656 223.726562 191.222656 222.824219 192.175781 217.746094 C 192.625 215.367188 190.792969 211.886719 185.3125 211.597656 C 179.671875 211.75 177.417969 215.824219 179.539062 219.0625 Z M 174.882812 229.175781 C 177.929688 232.316406 184.355469 232.222656 184.429688 229.035156 C 184.46875 227.476562 182.539062 225.113281 178.191406 224.734375 C 178.015625 224.734375 177.78125 224.734375 177.605469 224.734375 C 174.117188 224.792969 172.769531 226.996094 174.882812 229.175781 Z M 164.082031 218.695312 C 168.546875 222.835938 175.054688 222.039062 174.804688 217.355469 C 174.671875 214.988281 172.164062 211.335938 167.003906 210.660156 C 166.800781 210.660156 166.523438 210.621094 166.316406 210.621094 C 161.40625 210.605469 160.171875 215.054688 164.082031 218.695312 Z M 151.363281 218.097656 C 155.515625 220.441406 158.414062 219.191406 157.304688 215.53125 C 156.578125 213.121094 153.53125 209.242188 149.027344 208.171875 C 148.328125 208.015625 147.628906 208.023438 146.933594 208.195312 C 143.359375 209.242188 145.972656 215.074219 151.363281 218.097656 Z M 150.71875 225.726562 C 150.621094 225.578125 150.460938 225.347656 148.105469 223.414062 C 144.15625 220.175781 141.257812 218.070312 139.484375 217.15625 C 138.976562 216.9375 138.886719 216.917969 138.730469 216.957031 C 138.1875 218.019531 148.652344 225.316406 150.703125 225.785156 Z M 158.535156 226.332031 C 156.984375 224.660156 153.453125 221.816406 150.105469 220.839844 C 149.695312 220.75 148.929688 220.589844 148.550781 220.839844 C 146.664062 222.136719 155.933594 228.320312 159.078125 228.582031 C 160.640625 228.707031 159.0625 226.894531 158.535156 226.332031 Z M 167.285156 230.03125 C 170.9375 231.257812 172.195312 230.085938 171.304688 228.242188 C 170.550781 226.640625 167.683594 224.101562 163.757812 223.421875 C 163.25 223.371094 162.308594 223.277344 161.601562 223.578125 C 159.152344 224.625 162.511719 228.421875 167.285156 230.03125 Z M 174.785156 234.457031 C 173.792969 234.132812 173.792969 234.132812 173.085938 233.855469 C 167.289062 231.597656 167.289062 231.597656 165.753906 231.253906 C 165.082031 231.140625 164.765625 231.113281 164.648438 231.277344 C 164.734375 231.75 166.890625 232.730469 170.714844 233.628906 L 172.398438 234.007812 C 173.109375 234.148438 174.074219 234.324219 174.785156 234.457031 Z M 181.582031 234.742188 C 181.109375 234.320312 179.078125 233.019531 176.011719 232.671875 C 175.609375 232.644531 174.542969 232.574219 174.167969 232.898438 C 172.988281 233.929688 179.339844 235.390625 181.507812 235.273438 C 181.679688 235.265625 182.140625 235.242188 181.585938 234.742188 Z M 186.453125 233.203125 C 183.617188 233.234375 183.203125 234.148438 183.285156 234.46875 C 183.574219 235.597656 189.246094 235.972656 190.027344 234.929688 C 190.480469 234.316406 189.285156 233.308594 186.453125 233.203125 Z M 198.035156 232.878906 C 195.015625 233.160156 192.960938 234.363281 192.660156 234.953125 C 192.136719 236 197.769531 234.972656 199.171875 234.390625 C 199.515625 234.261719 199.828125 234.082031 200.105469 233.84375 C 200.5625 233.40625 200.402344 232.761719 198.039062 232.878906 Z M 209.121094 231.5625 C 205.8125 232.207031 200.4375 234.632812 200.4375 234.652344 C 201.945312 234.382812 203.992188 233.980469 205.507812 233.65625 C 206.046875 233.519531 206.714844 233.355469 207.527344 233.097656 C 209.332031 232.515625 210.167969 232.015625 210.355469 231.765625 C 210.648438 231.316406 209.496094 231.492188 209.121094 231.5625 Z M 211.085938 223.664062 C 206.253906 224.414062 203.097656 227.578125 203.136719 229.335938 C 203.1875 232.105469 210.160156 230.242188 213.253906 227.214844 L 213.605469 226.839844 C 214.953125 225.316406 215.058594 223.316406 211.085938 223.664062 Z M 224.859375 224.617188 C 225.714844 224 226.445312 223.257812 227.054688 222.398438 C 227.402344 221.84375 227.953125 220.59375 225.542969 221.09375 C 221.015625 222.371094 215.929688 226.984375 215.878906 228.351562 C 215.828125 229.808594 221.566406 227.21875 224.859375 224.621094 Z M 236.875 217.417969 C 236.703125 217.355469 236.605469 217.382812 236.121094 217.578125 C 232.96875 219.125 225.421875 225.371094 224.980469 226.023438 L 225.015625 226.089844 C 225.734375 225.960938 229.722656 223.660156 232.917969 221.277344 C 234.988281 219.769531 237.074219 217.910156 236.875 217.417969 Z M 241.84375 208.90625 C 243.023438 206.867188 243.660156 204.132812 240.585938 204.964844 C 235.832031 206.757812 231.148438 213.550781 231.710938 215.808594 C 232.320312 218.265625 238.039062 214.382812 241.078125 210.097656 C 241.328125 209.742188 241.636719 209.277344 241.847656 208.90625 Z M 251.214844 200.253906 C 247.949219 202.539062 241.933594 211.316406 242.183594 212.40625 C 242.390625 213.300781 246.363281 209.394531 249.261719 205.464844 C 250.644531 203.582031 251.65625 201.867188 251.964844 200.878906 C 252.378906 199.582031 251.566406 200.042969 251.21875 200.238281 Z M 253.015625 184.71875 C 248.488281 187.144531 245.234375 196.199219 246.601562 198.707031 C 247.875 201.078125 252.375 196.730469 254.496094 191.074219 C 255.929688 187.199219 255.785156 183.675781 253.019531 184.703125 Z M 256.925781 176.816406 C 258.8125 178.996094 261.667969 173.945312 262.101562 167.660156 C 262.363281 163.894531 261.613281 159.195312 259.125 160.457031 C 255.75 163.03125 254.699219 174.234375 256.929688 176.792969 Z M 262.304688 179.53125 C 262.332031 178.441406 261.855469 178.882812 261.625 179.097656 C 259.066406 182.105469 255.363281 193.367188 256.015625 194.148438 C 256.527344 194.753906 259 190.191406 260.746094 185.429688 C 261.867188 182.355469 262.289062 180.359375 262.308594 179.507812 Z M 262.523438 142.507812 C 261.554688 138.480469 259.636719 134.851562 258.230469 135.992188 C 256.066406 138.886719 259.039062 150.917969 261.492188 152.058594 C 263.300781 152.867188 263.820312 147.863281 262.546875 142.484375 Z M 265.765625 161.472656 C 265.875 159 265.898438 154.675781 265.3125 154.152344 C 265.183594 154.152344 265.152344 154.203125 265.03125 154.433594 C 264.089844 156.972656 263.246094 170.953125 264.328125 171.363281 C 264.960938 170.675781 265.566406 165.691406 265.769531 161.449219 Z M 265.765625 161.472656 " fill-opacity="1" fill-rule="nonzero"/></g><path fill="#004aad" d="M 146.175781 91.835938 L 146.125 100.679688 C 145.191406 100.890625 144.261719 101.113281 143.332031 101.347656 C 138.539062 102.539062 133.84375 104.03125 129.246094 105.828125 C 134.238281 100.382812 139.882812 95.71875 146.175781 91.835938 Z M 187.679688 80.113281 C 180.632812 80.101562 173.707031 81.019531 166.910156 82.863281 C 160.109375 84.707031 153.675781 87.414062 147.605469 90.984375 L 147.574219 100.359375 C 164.714844 96.722656 182.375 97.238281 199.128906 100.175781 C 217.300781 103.238281 235.089844 108.789062 251.4375 117.105469 C 253.023438 117.910156 254.589844 118.757812 256.152344 119.613281 C 242.46875 96.015625 216.96875 80.113281 187.679688 80.113281 Z M 187.679688 80.113281 " fill-opacity="1" fill-rule="nonzero"/><g clip-path="url(#ef37253989)"><path fill="#79c100" d="M 258.988281 124.941406 C 253.445312 123.4375 247.664062 122.617188 239.738281 122.207031 C 217.9375 121.078125 174.023438 118.070312 140.144531 157.617188 C 130.894531 168.421875 123.425781 182.652344 118.4375 197.167969 C 115.183594 191.332031 112.71875 185.179688 111.039062 178.714844 C 109.363281 172.25 108.523438 165.679688 108.53125 159 L 108.53125 158.644531 C 108.625 138.230469 121.699219 119.957031 140.863281 112.742188 C 142.574219 112.09375 144.308594 111.496094 146.0625 110.941406 L 146.039062 115.585938 C 142.441406 115.941406 139.976562 116.652344 139.976562 117.46875 C 139.976562 118.632812 144.960938 119.582031 151.113281 119.582031 C 157.269531 119.582031 162.253906 118.632812 162.253906 117.46875 C 162.253906 116.300781 157.269531 115.351562 151.113281 115.351562 C 149.859375 115.351562 148.652344 115.390625 147.523438 115.464844 L 147.523438 110.476562 C 163.644531 105.554688 181.007812 104.746094 198.210938 106.648438 C 210.644531 107.964844 222.816406 110.523438 234.726562 114.320312 C 239.90625 115.984375 245.027344 117.867188 250.035156 120.039062 C 252.914062 121.28125 255.746094 122.636719 258.554688 124.042969 C 258.703125 124.332031 258.84375 124.648438 258.988281 124.941406 Z M 258.988281 124.941406 " fill-opacity="1" fill-rule="nonzero"/></g><path fill="#ff3131" d="M 172.757812 67.320312 C 168.714844 71.402344 162.886719 71.144531 158.90625 69.269531 C 154.753906 67.695312 151.382812 68.085938 147.957031 70.140625 C 148.570312 67.890625 148.90625 65.605469 148.964844 63.277344 C 149.050781 60.617188 148.628906 58.320312 147.726562 56.898438 C 153.324219 56.296875 158.53125 59.394531 161.601562 63.066406 C 164.671875 66.738281 167.9375 69.101562 172.757812 67.320312 Z M 172.757812 67.320312 " fill-opacity="1" fill-rule="nonzero"/><g clip-path="url(#ecb7ae6237)"><path fill="#ffffff" d="M 162.253906 117.476562 C 162.253906 118.644531 157.269531 119.59375 151.113281 119.59375 C 144.960938 119.59375 139.976562 118.644531 139.976562 117.476562 C 139.976562 116.660156 142.441406 115.945312 146.039062 115.597656 L 146.0625 110.953125 L 146.125 100.683594 L 146.175781 91.839844 L 146.386719 55.855469 L 147.722656 55.855469 L 147.722656 56.894531 L 147.609375 90.980469 L 147.578125 100.355469 L 147.542969 110.484375 L 147.542969 115.472656 C 148.675781 115.398438 149.875 115.359375 151.132812 115.359375 C 157.269531 115.363281 162.253906 116.308594 162.253906 117.476562 Z M 162.253906 117.476562 " fill-opacity="1" fill-rule="nonzero"/></g><g fill="#ffffff" fill-opacity="1"><g transform="translate(71.648628, 281.306334)"><g><path d="M 1.015625 0 L 1.015625 -28.9375 L 6.609375 -28.9375 L 6.609375 0 Z M 1.015625 0 "/></g></g></g><g fill="#ffffff" fill-opacity="1"><g transform="translate(79.293898, 281.306334)"><g/></g></g><g fill="#ffffff" fill-opacity="1"><g transform="translate(87.174929, 281.306334)"><g><path d="M 8.015625 0.265625 C 5.898438 0.265625 4.207031 -0.394531 2.9375 -1.71875 C 1.675781 -3.039062 1.046875 -4.859375 1.046875 -7.171875 L 1.046875 -20.515625 C 1.046875 -23.390625 1.617188 -25.554688 2.765625 -27.015625 C 3.910156 -28.472656 5.707031 -29.203125 8.15625 -29.203125 C 10.289062 -29.203125 12.007812 -28.617188 13.3125 -27.453125 C 14.613281 -26.285156 15.265625 -24.601562 15.265625 -22.40625 L 15.265625 -17.421875 L 9.5 -17.421875 L 9.5 -21.6875 C 9.5 -22.519531 9.394531 -23.09375 9.1875 -23.40625 C 8.988281 -23.726562 8.644531 -23.890625 8.15625 -23.890625 C 7.632812 -23.890625 7.28125 -23.707031 7.09375 -23.34375 C 6.90625 -22.988281 6.8125 -22.460938 6.8125 -21.765625 L 6.8125 -7.25 C 6.8125 -6.476562 6.921875 -5.914062 7.140625 -5.5625 C 7.367188 -5.21875 7.707031 -5.046875 8.15625 -5.046875 C 9.050781 -5.046875 9.5 -5.78125 9.5 -7.25 L 9.5 -12.46875 L 15.328125 -12.46875 L 15.328125 -7 C 15.328125 -2.15625 12.890625 0.265625 8.015625 0.265625 Z M 8.015625 0.265625 "/></g></g></g><g fill="#ffffff" fill-opacity="1"><g transform="translate(103.139058, 281.306334)"><g><path d="M 0.5 0 L 3.296875 -28.9375 L 13.109375 -28.9375 L 15.859375 0 L 10.375 0 L 9.96875 -4.6875 L 6.46875 -4.6875 L 6.125 0 Z M 6.90625 -9.296875 L 9.53125 -9.296875 L 8.25 -24.015625 L 7.984375 -24.015625 Z M 6.90625 -9.296875 "/></g></g></g><g fill="#ffffff" fill-opacity="1"><g transform="translate(119.473667, 281.306334)"><g><path d="M 1.28125 0 L 1.28125 -28.9375 L 7.25 -28.9375 L 9.90625 -15.09375 L 9.90625 -28.9375 L 15.5 -28.9375 L 15.5 0 L 9.84375 0 L 6.9375 -14.484375 L 6.9375 0 Z M 1.28125 0 "/></g></g></g><g fill="#ffffff" fill-opacity="1"><g transform="translate(136.246104, 281.306334)"><g/></g></g><g fill="#ffffff" fill-opacity="1"><g transform="translate(144.127135, 281.306334)"><g><path d="M 1.28125 0 L 1.28125 -28.9375 L 7.046875 -28.9375 L 7.046875 -18.59375 L 9.765625 -18.59375 L 9.765625 -28.9375 L 15.53125 -28.9375 L 15.53125 0 L 9.765625 0 L 9.765625 -13.140625 L 7.046875 -13.140625 L 7.046875 0 Z M 1.28125 0 "/></g></g></g><g fill="#ffffff" fill-opacity="1"><g transform="translate(160.933251, 281.306334)"><g><path d="M 1.015625 0 L 1.015625 -28.9375 L 6.609375 -28.9375 L 6.609375 0 Z M 1.015625 0 "/></g></g></g><g fill="#ffffff" fill-opacity="1"><g transform="translate(168.578522, 281.306334)"><g><path d="M 3.765625 0 L 3.765625 -23.375 L 0.34375 -23.375 L 0.34375 -28.9375 L 13 -28.9375 L 13 -23.375 L 9.5625 -23.375 L 9.5625 0 Z M 3.765625 0 "/></g></g></g><g fill="#ffffff" fill-opacity="1"><g transform="translate(181.915649, 281.306334)"><g/></g></g><g fill="#ffffff" fill-opacity="1"><g transform="translate(189.79668, 281.306334)"><g><path d="M 3.765625 0 L 3.765625 -23.375 L 0.34375 -23.375 L 0.34375 -28.9375 L 13 -28.9375 L 13 -23.375 L 9.5625 -23.375 L 9.5625 0 Z M 3.765625 0 "/></g></g></g><g fill="#ffffff" fill-opacity="1"><g transform="translate(203.133807, 281.306334)"><g><path d="M 1.28125 0 L 1.28125 -28.9375 L 7.046875 -28.9375 L 7.046875 -18.59375 L 9.765625 -18.59375 L 9.765625 -28.9375 L 15.53125 -28.9375 L 15.53125 0 L 9.765625 0 L 9.765625 -13.140625 L 7.046875 -13.140625 L 7.046875 0 Z M 1.28125 0 "/></g></g></g><g fill="#ffffff" fill-opacity="1"><g transform="translate(219.939923, 281.306334)"><g><path d="M 0.5 0 L 3.296875 -28.9375 L 13.109375 -28.9375 L 15.859375 0 L 10.375 0 L 9.96875 -4.6875 L 6.46875 -4.6875 L 6.125 0 Z M 6.90625 -9.296875 L 9.53125 -9.296875 L 8.25 -24.015625 L 7.984375 -24.015625 Z M 6.90625 -9.296875 "/></g></g></g><g fill="#ffffff" fill-opacity="1"><g transform="translate(236.274532, 281.306334)"><g><path d="M 3.765625 0 L 3.765625 -23.375 L 0.34375 -23.375 L 0.34375 -28.9375 L 13 -28.9375 L 13 -23.375 L 9.5625 -23.375 L 9.5625 0 Z M 3.765625 0 "/></g></g></g><g fill="#ffffff" fill-opacity="1"><g transform="translate(249.611659, 281.306334)"><g/></g></g><g fill="#ffffff" fill-opacity="1"><g transform="translate(257.49269, 281.306334)"><g><path d="M 1.28125 0 L 1.28125 -28.9375 L 12.875 -28.9375 L 12.875 -23.3125 L 7.109375 -23.3125 L 7.109375 -18.703125 L 12.5625 -18.703125 L 12.5625 -13.140625 L 7.109375 -13.140625 L 7.109375 0 Z M 1.28125 0 "/></g></g></g><g fill="#ffffff" fill-opacity="1"><g transform="translate(270.930856, 281.306334)"><g><path d="M 0.5 0 L 3.296875 -28.9375 L 13.109375 -28.9375 L 15.859375 0 L 10.375 0 L 9.96875 -4.6875 L 6.46875 -4.6875 L 6.125 0 Z M 6.90625 -9.296875 L 9.53125 -9.296875 L 8.25 -24.015625 L 7.984375 -24.015625 Z M 6.90625 -9.296875 "/></g></g></g><g fill="#ffffff" fill-opacity="1"><g transform="translate(287.265465, 281.306334)"><g><path d="M 1.28125 -28.9375 L 10.171875 -28.9375 C 11.585938 -28.9375 12.679688 -28.613281 13.453125 -27.96875 C 14.234375 -27.332031 14.753906 -26.4375 15.015625 -25.28125 C 15.285156 -24.125 15.421875 -22.648438 15.421875 -20.859375 C 15.421875 -19.210938 15.207031 -17.925781 14.78125 -17 C 14.363281 -16.082031 13.625 -15.445312 12.5625 -15.09375 C 13.4375 -14.914062 14.070312 -14.476562 14.46875 -13.78125 C 14.863281 -13.082031 15.0625 -12.140625 15.0625 -10.953125 L 14.984375 0 L 9.328125 0 L 9.328125 -11.3125 C 9.328125 -12.125 9.171875 -12.640625 8.859375 -12.859375 C 8.546875 -13.085938 7.972656 -13.203125 7.140625 -13.203125 L 7.140625 0 L 1.28125 0 Z M 8.5625 -18.21875 C 9.363281 -18.21875 9.765625 -19.097656 9.765625 -20.859375 C 9.765625 -21.617188 9.726562 -22.1875 9.65625 -22.5625 C 9.59375 -22.945312 9.472656 -23.210938 9.296875 -23.359375 C 9.117188 -23.503906 8.859375 -23.578125 8.515625 -23.578125 L 7.171875 -23.578125 L 7.171875 -18.21875 Z M 8.5625 -18.21875 "/></g></g></g></svg>